PathFileType	4	(X/Y/Z)	C:/Users/beibeiliu/ov580/test_trc/User3\sequence.7_training_dense_right.trc
DataRate	CameraRate	NumFrames	NumMarkers	Units	OrigDataRate	OrigDataStartFrame	OrigNumFrames
120	120	14	19	mm	120	101	200
Frame#	Time	ThumbCMC			ThumbMCP			ThumbIP			ThumbTip			IndexMCP			IndexPIP			IndexTip			MiddleMCP			MiddlePIP			MiddleTip			RingMCP			RingPIP			RingTip			PinkyMCP			PinkyPIP			PinkyTip			BackHand1			BackHand2			BackHand3	
		X0	Y0	Z0	X1	Y1	Z1	X2	Y2	Z2	X3	Y3	Z3	X4	Y4	Z4	X5	Y5	Z5	X6	Y6	Z6	X7	Y7	Z7	X8	Y8	Z8	X9	Y9	Z9	X10	Y10	Z10	X11	Y11	Z11	X12	Y12	Z12	X13	Y13	Z13	X14	Y14	Z14	X15	Y15	Z15	X16	Y16	Z16	X17	Y17	Z17	X18	Y18	Z18	
100	0.833333	35.3064	-13.0721	-3.67319	16.0466	-21.8868	-27.6396	1.7284	-28.9223	-51.6733	0.177379	-36.8808	-76.8658	52.4517	9.20442	-76.1438	40.011	10.805	-104.862	32.6962	-0.115079	-126.223	80.8807	1.51363	-82.3302	80.9004	-3.10322	-113.58	71.9375	-18.8394	-140.138	89.6234	-25.2214	-77.4667	79.2279	-47.2764	-98.3364	60.4768	-75.5921	-93.0959	103.074	-39.7837	-64.0946	88.9723	-59.0281	-78.7522	68.4356	-73.9308	-60.233	95.197	-6.52086	-25.0845	101.622	-10.3178	4.38266	69.127	7.01905	-10.3484	
101	0.841667	33.133	-11.5103	-7.20491	19.4396	-22.3047	-31.1557	1.0555	-27.1997	-56.6708	-4.37102	-36.4458	-74.2553	48.0286	11.7542	-77.6165	38.8123	11.304	-103.582	30.8225	-2.25467	-129.369	80.2644	2.65764	-85.0701	77.2843	-1.81845	-112.533	68.3886	-22.0722	-143.287	85.75	-23.0855	-79.8788	77.9501	-46.2459	-98.4576	59.9371	-72.6491	-95.3799	100.51	-37.9241	-64.0573	86.8337	-59.6121	-78.5342	66.3627	-73.7067	-62.6625	96.9355	-7.2828	-23.2621	97.8875	-9.81755	5.32229	70.2585	6.3661	-11.3537	
102	0.85	35.9807	-13.1515	-5.45501	16.7617	-22.1181	-28.8288	0.411232	-27.9502	-56.118	-1.44999	-38.0946	-73.4982	50.1229	10.4711	-75.3216	41.114	10.6423	-103.276	31.0672	-2.21225	-127.871	78.6174	2.20907	-82.8722	76.1689	-4.37985	-115.111	66.9032	-27.3863	-142.753	86.825	-24.0956	-77.4512	76.5757	-44.5669	-98.2437	59.6193	-71.5541	-96.5097	99.3415	-38.625	-67.9968	86.6674	-59.4701	-78.9443	67.4085	-74.3509	-63.5477	95.6568	-4.64531	-28.3061	99.8689	-9.18673	6.28867	70.2069	6.12657	-10.2177	
103	0.858333	31.728	-13.1657	-2.28645	17.0776	-23.3691	-27.8539	3.7945	-29.4008	-53.7405	-1.93758	-37.9065	-78.5415	50.5829	9.74225	-77.5317	37.0282	9.34294	-105.044	25.8625	-3.46909	-127.407	77.5348	-0.421287	-82.4811	69.6663	-5.64796	-114.231	58.7915	-25.8783	-138.75	83.0629	-23.999	-79.4675	75.4446	-44.7583	-96.5113	59.1135	-71.8714	-94.8007	99.2036	-40.2404	-68.0023	85.2841	-58.088	-79.817	64.5098	-74.7438	-65.8822	96.6301	-6.07171	-26.1412	97.3156	-8.65237	6.24688	64.8644	7.82279	-8.0602	
104	0.866667	34.8156	-15.451	-2.05979	12.9095	-22.5805	-29.0415	3.71685	-29.6301	-55.3716	-0.51871	-38.7847	-75.3078	45.7767	11.53	-73.7729	35.173	10.3281	-104.602	29.2542	-4.71473	-126.742	72.2115	3.29513	-84.536	70.8525	-6.05403	-113.003	60.7	-27.6612	-137.725	83.7644	-24.3474	-78.7256	71.2148	-45.0112	-98.0348	58.6404	-74.006	-92.8447	98.6317	-38.0936	-65.3434	84.6321	-59.6455	-78.7049	59.7545	-73.8728	-63.122	94.9708	-5.22847	-22.1867	97.0008	-10.8097	7.78604	67.171	3.94398	-7.24019	
105	0.875	33.422	-12.2549	-4.00742	13.0768	-21.8376	-29.2669	0.126046	-28.6076	-56.937	-1.05474	-37.8529	-78.7265	46.509	12.5117	-76.7931	36.2463	10.5547	-103.304	28.2299	-2.3143	-125.237	74.0192	3.00134	-84.051	71.3577	-3.6105	-111.17	59.5567	-26.3571	-138.056	81.0541	-22.7646	-81.0134	70.0824	-44.1063	-98.1249	57.1496	-69.0579	-95.4259	97.7716	-37.3162	-66.3111	80.3157	-58.4947	-78.7081	61.7924	-71.9583	-63.2424	94.2996	-4.49419	-25.7566	95.0479	-7.38235	6.09371	63.9293	7.06797	-10.377	
106	0.883333	30.146	-11.325	-3.00949	12.9709	-21.0419	-28.2361	1.64895	-27.7684	-56.9984	-0.356313	-37.9125	-75.523	49.846	10.4896	-77.4939	40.8327	9.64848	-102.512	30.1126	-3.78093	-127.796	76.9529	1.70797	-84.997	72.7667	-4.85106	-114.637	60.5839	-28.4374	-140.934	82.5834	-21.9306	-80.2755	73.506	-42.5523	-97.1974	57.3845	-67.6713	-95.1974	100.154	-38.2505	-64.3347	83.4235	-61.6718	-76.9597	66.4443	-74.3629	-61.8464	99.1227	-4.60682	-25.9115	99.7136	-9.23694	6.63614	66.2482	7.99998	-11.2626	
107	0.891667	31.9963	-13.3966	-2.29976	18.6227	-23.6164	-29.9914	4.52862	-29.1579	-57.6565	-1.38324	-38.3253	-77.7765	49.1357	11.1696	-75.673	36.8143	9.8781	-104.401	28.778	-6.05201	-128.969	76.4795	2.96129	-85.6878	71.974	-4.49781	-113.428	65.7896	-26.5993	-137.146	83.7422	-23.2884	-78.6029	76.5813	-48.3437	-97.4883	58.5551	-70.0644	-94.1096	100.297	-40.3356	-67.0347	86.9101	-59.4252	-78.4784	63.437	-72.7818	-62.0471	99.1297	-6.96005	-25.1877	97.9247	-8.09985	3.86591	67.1379	6.45771	-8.72048	
108	0.9	36.0246	-15.1922	-2.13672	16.4227	-23.2858	-31.177	1.12239	-30.107	-55.5547	0.647975	-39.2303	-77.7787	51.2764	9.4518	-74.2736	39.6332	7.74766	-105.905	28.8961	-6.10493	-128.096	76.2008	1.43799	-79.6407	77.0832	-6.25072	-111.989	63.6016	-26.6313	-137.411	84.8961	-25.9287	-80.5477	77.912	-48.9072	-97.0883	59.9529	-75.8451	-93.2598	99.6757	-41.5616	-68.7786	86.4473	-59.1294	-78.2194	65.1988	-75.9671	-61.0608	99.8451	-9.45004	-23.71	97.3314	-8.46079	4.89597	68.9605	6.90683	-8.51073	
109	0.908333	33.8499	-14.0912	-2.36943	18.3411	-23.5326	-27.8097	3.48543	-30.5206	-57.4496	1.53668	-39.6643	-78.3701	50.0541	8.93976	-72.2739	40.623	7.95256	-101.15	30.4054	-6.24642	-128.509	80.0781	-1.00206	-84.3872	72.7499	-5.89134	-112.264	66.6444	-27.6724	-137.432	87.8532	-28.1548	-78.7444	79.4794	-47.6898	-96.0289	60.8425	-74.2355	-93.7284	99.3101	-39.3793	-67.2353	85.2578	-62.2667	-77.9387	64.9491	-73.513	-60.9865	98.4546	-9.34044	-23.7365	101.005	-10.907	5.5035	69.1303	2.83455	-7.20466	
110	0.916667	33.5356	-13.7842	-5.83285	16.7421	-24.9659	-29.7261	0.977984	-30.6209	-53.8506	-2.41675	-39.7084	-79.0868	54.3354	6.29602	-73.8113	41.8716	4.89281	-104.963	29.4707	-6.1142	-126.717	76.6303	0.0288102	-81.0124	74.8009	-10.0595	-115.48	65.3297	-30.219	-139.73	87.2607	-27.3065	-76.6128	73.3676	-49.1623	-98.2482	59.7884	-72.0928	-94.2996	100.8	-41.1462	-67.2286	84.887	-60.0834	-78.6771	66.0716	-77.6939	-60.7871	99.5375	-11.0003	-22.9638	98.8298	-13.7943	7.72487	69.4476	4.83193	-9.77062	
111	0.925	36.2228	-16.5736	-5.35054	18.2312	-26.3375	-28.2581	1.67668	-31.3969	-52.2922	-1.43377	-40.8042	-75.9874	52.5634	6.47749	-75.1539	40.679	4.98771	-104.842	28.47	-7.8239	-126.517	78.596	-2.11566	-81.8727	72.8316	-7.48181	-112.04	62.9053	-31.8816	-141.12	87.676	-28.7311	-77.9069	74.381	-48.4429	-96.8155	58.1195	-76.3502	-93.402	99.2629	-40.6378	-64.2521	85.6462	-61.9814	-77.8499	67.6196	-76.9975	-61.991	95.3891	-8.06886	-26.5169	101.228	-13.6999	5.17488	68.3057	4.17304	-5.88693	
112	0.933333	35.2577	-15.0998	-5.27643	20.0937	-25.1548	-31.4715	3.3784	-31.3603	-53.4898	-2.07269	-40.8907	-77.6526	49.571	6.74942	-74.293	41.3162	4.31901	-105.795	31.785	-6.83671	-124.747	75.3839	-0.746983	-86.0984	75.2494	-8.0658	-112.012	61.2091	-28.8304	-140.063	84.6066	-26.4053	-80.0396	74.3288	-49.5668	-98.2185	58.2699	-77.569	-93.052	100.83	-42.3677	-65.4489	86.7228	-65.5263	-77.9616	66.1222	-76.3151	-60.2857	99.0766	-7.59701	-27.3039	99.9945	-11.7356	4.2654	67.8875	2.83444	-9.2078	
113	0.941667	33.0326	-14.2834	-2.44988	14.8651	-25.0671	-26.8554	1.50917	-30.2766	-56.0858	-3.28486	-40.5962	-74.9296	52.2517	7.29945	-74.7649	39.2758	7.1824	-101.368	32.0745	-8.10859	-128.782	79.882	-3.10291	-82.3688	75.5018	-10.7693	-115.857	63.9971	-26.9462	-137.4	84.1272	-26.7263	-79.1652	78.573	-50.6933	-97.4273	57.8867	-77.0759	-93.9222	100.651	-43.152	-68.0845	83.9515	-62.5293	-78.8471	67.9517	-77.55	-62.525	96.9332	-8.56024	-27.353	97.3958	-13.1052	7.30361	67.2354	2.84477	-6.75271	
